<?xml version="1.0" standalone="no"?>
<!DOCTYPE svg PUBLIC "-//W3C//DTD SVG 20010904//EN"
 "http://www.w3.org/TR/2001/REC-SVG-20010904/DTD/svg10.dtd">
<svg version="1.0" xmlns="http://www.w3.org/2000/svg"
 width="1280.000000pt" height="776.000000pt" viewBox="0 0 1280.000000 776.000000"
 preserveAspectRatio="xMidYMid meet">
<metadata>
Created by potrace 1.15, written by Peter Selinger 2001-2017
</metadata>
<g transform="translate(0.000000,776.000000) scale(0.100000,-0.100000)"
fill="#000000" stroke="none">
<path d="M5215 7750 c-806 -71 -1516 -352 -2135 -844 -154 -122 -476 -443
-593 -590 -565 -711 -857 -1540 -857 -2436 0 -1023 386 -1972 1100 -2704 636
-653 1424 -1039 2350 -1153 203 -25 657 -25 860 0 493 61 906 185 1325 397
868 439 1544 1194 1884 2102 167 447 241 864 241 1358 0 453 -57 809 -195
1225 -451 1364 -1641 2377 -3060 2605 -253 41 -693 60 -920 40z m520 -1500
c1078 -120 1953 -941 2135 -2005 104 -607 -24 -1230 -357 -1740 -102 -155
-186 -259 -323 -395 -136 -137 -240 -222 -395 -323 -881 -574 -2038 -514
-2860 150 -197 159 -408 398 -545 618 -24 39 -72 126 -106 195 -470 944 -275
2085 482 2821 386 374 851 600 1384 673 124 17 457 20 585 6z"/>
<path d="M10663 7410 c-268 -63 -513 -650 -627 -1500 -84 -628 -131 -1619 -91
-1925 28 -210 84 -345 206 -495 l59 -72 1 -341 c0 -188 4 -754 8 -1258 8 -910
9 -916 30 -965 78 -176 297 -219 431 -85 88 88 80 -269 80 3398 l0 3253 -32
-1 c-18 -1 -47 -4 -65 -9z"/>
<path d="M11990 7199 c-220 -43 -442 -303 -585 -684 -79 -211 -107 -393 -106
-685 0 -271 22 -403 92 -547 42 -88 138 -217 188 -252 46 -33 154 -183 205
-285 141 -285 147 -577 21 -979 l-25 -78 0 -1387 c0 -1373 1 -1387 21 -1432
82 -182 319 -217 456 -67 78 85 73 -15 73 1502 l0 1351 -34 167 c-48 229 -60
345 -53 512 11 291 96 492 301 715 133 144 186 233 228 386 19 71 22 103 22
314 0 264 -16 409 -64 594 -126 486 -345 804 -588 855 -60 12 -88 13 -152 0z"/>
<path d="M205 7058 c-2 -7 -6 -33 -9 -58 -3 -25 -49 -355 -102 -735 -107 -770
-108 -797 -60 -951 32 -101 79 -178 187 -307 110 -130 178 -234 217 -333 107
-268 107 -526 -1 -899 l-32 -110 0 -1380 c0 -1379 0 -1380 21 -1425 31 -68 68
-106 136 -139 137 -69 300 -13 369 126 l24 48 3 1370 3 1370 -25 130 c-50 264
-51 276 -50 490 0 195 3 217 27 310 30 110 99 262 153 336 19 26 68 87 109
136 41 48 91 118 110 154 43 82 75 211 75 304 0 39 -34 304 -74 590 -41 286
-89 625 -107 753 l-32 232 -50 0 -50 0 7 -227 c5 -192 16 -678 28 -1333 l3
-145 -90 4 c-49 1 -91 4 -91 5 -1 0 -6 285 -13 631 -6 347 -14 728 -18 848
l-6 217 -53 0 -54 0 0 -855 0 -855 -78 0 -79 0 -6 173 c-4 94 -7 361 -7 592 0
231 -3 538 -7 683 l-6 262 -52 0 -52 0 -7 -292 c-3 -161 -11 -545 -17 -853 -6
-308 -14 -564 -18 -568 -4 -4 -43 -7 -87 -5 l-79 3 3 165 c2 91 7 341 12 555
5 215 12 526 16 693 l7 302 -47 0 c-29 0 -48 -5 -51 -12z"/>
</g>
</svg>
